<svg width="91" height="29" viewBox="0 0 91 29" fill="none" xmlns="http://www.w3.org/2000/svg">
<path d="M6.5 24.04C5.48667 24.04 4.50667 23.9133 3.56 23.66C2.62667 23.42 1.84667 23.0533 1.22 22.56L2.46 20.32C2.91333 20.6933 3.48667 20.9867 4.18 21.2C4.88667 21.4267 5.58 21.54 6.26 21.54C7.36667 21.54 8.16667 21.2933 8.66 20.8C9.16667 20.3067 9.42 19.5733 9.42 18.6V16.98L9.62 14.28L9.58 11.56V9.24H12.54V18.2C12.54 20.2 12.02 21.6733 10.98 22.62C9.94 23.5667 8.44667 24.04 6.5 24.04ZM6.02 19.48C5.02 19.48 4.11333 19.2667 3.3 18.84C2.5 18.4 1.85333 17.7933 1.36 17.02C0.88 16.2333 0.64 15.32 0.64 14.28C0.64 13.2267 0.88 12.3133 1.36 11.54C1.85333 10.7533 2.5 10.1467 3.3 9.72C4.11333 9.29333 5.02 9.08 6.02 9.08C6.92667 9.08 7.72667 9.26667 8.42 9.64C9.11333 10 9.65333 10.5667 10.04 11.34C10.4267 12.1 10.62 13.08 10.62 14.28C10.62 15.4667 10.4267 16.4467 10.04 17.22C9.65333 17.98 9.11333 18.5467 8.42 18.92C7.72667 19.2933 6.92667 19.48 6.02 19.48ZM6.64 16.92C7.18667 16.92 7.67333 16.8133 8.1 16.6C8.52667 16.3733 8.86 16.06 9.1 15.66C9.34 15.26 9.46 14.8 9.46 14.28C9.46 13.7467 9.34 13.2867 9.1 12.9C8.86 12.5 8.52667 12.1933 8.1 11.98C7.67333 11.7533 7.18667 11.64 6.64 11.64C6.09333 11.64 5.60667 11.7533 5.18 11.98C4.75333 12.1933 4.41333 12.5 4.16 12.9C3.92 13.2867 3.8 13.7467 3.8 14.28C3.8 14.8 3.92 15.26 4.16 15.66C4.41333 16.06 4.75333 16.3733 5.18 16.6C5.60667 16.8133 6.09333 16.92 6.64 16.92ZM15.4439 20V9.24H18.4239V12.28L18.0039 11.4C18.3239 10.64 18.8372 10.0667 19.5439 9.68C20.2506 9.28 21.1106 9.08 22.1239 9.08V11.96C21.9906 11.9467 21.8706 11.94 21.7639 11.94C21.6572 11.9267 21.5439 11.92 21.4239 11.92C20.5706 11.92 19.8772 12.1667 19.3439 12.66C18.8239 13.14 18.5639 13.8933 18.5639 14.92V20H15.4439ZM29.8759 20V17.9L29.6759 17.44V13.68C29.6759 13.0133 29.4693 12.4933 29.0559 12.12C28.6559 11.7467 28.0359 11.56 27.1959 11.56C26.6226 11.56 26.0559 11.6533 25.4959 11.84C24.9493 12.0133 24.4826 12.2533 24.0959 12.56L22.9759 10.38C23.5626 9.96667 24.2693 9.64667 25.0959 9.42C25.9226 9.19333 26.7626 9.08 27.6159 9.08C29.2559 9.08 30.5293 9.46667 31.4359 10.24C32.3426 11.0133 32.7959 12.22 32.7959 13.86V20H29.8759ZM26.5959 20.16C25.7559 20.16 25.0359 20.02 24.4359 19.74C23.8359 19.4467 23.3759 19.0533 23.0559 18.56C22.7359 18.0667 22.5759 17.5133 22.5759 16.9C22.5759 16.26 22.7293 15.7 23.0359 15.22C23.3559 14.74 23.8559 14.3667 24.5359 14.1C25.2159 13.82 26.1026 13.68 27.1959 13.68H30.0559V15.5H27.5359C26.8026 15.5 26.2959 15.62 26.0159 15.86C25.7493 16.1 25.6159 16.4 25.6159 16.76C25.6159 17.16 25.7693 17.48 26.0759 17.72C26.3959 17.9467 26.8293 18.06 27.3759 18.06C27.8959 18.06 28.3626 17.94 28.7759 17.7C29.1893 17.4467 29.4893 17.08 29.6759 16.6L30.1559 18.04C29.9293 18.7333 29.5159 19.26 28.9159 19.62C28.3159 19.98 27.5426 20.16 26.5959 20.16ZM40.3178 20.16C39.3045 20.16 38.3911 19.9333 37.5778 19.48C36.7645 19.0133 36.1178 18.3667 35.6378 17.54C35.1711 16.7133 34.9378 15.74 34.9378 14.62C34.9378 13.4867 35.1711 12.5067 35.6378 11.68C36.1178 10.8533 36.7645 10.2133 37.5778 9.76C38.3911 9.30667 39.3045 9.08 40.3178 9.08C41.2245 9.08 42.0178 9.28 42.6978 9.68C43.3778 10.08 43.9045 10.6867 44.2778 11.5C44.6511 12.3133 44.8378 13.3533 44.8378 14.62C44.8378 15.8733 44.6578 16.9133 44.2978 17.74C43.9378 18.5533 43.4178 19.16 42.7378 19.56C42.0711 19.96 41.2645 20.16 40.3178 20.16ZM40.8578 17.6C41.3645 17.6 41.8245 17.48 42.2378 17.24C42.6511 17 42.9778 16.66 43.2178 16.22C43.4711 15.7667 43.5978 15.2333 43.5978 14.62C43.5978 13.9933 43.4711 13.46 43.2178 13.02C42.9778 12.58 42.6511 12.24 42.2378 12C41.8245 11.76 41.3645 11.64 40.8578 11.64C40.3378 11.64 39.8711 11.76 39.4578 12C39.0445 12.24 38.7111 12.58 38.4578 13.02C38.2178 13.46 38.0978 13.9933 38.0978 14.62C38.0978 15.2333 38.2178 15.7667 38.4578 16.22C38.7111 16.66 39.0445 17 39.4578 17.24C39.8711 17.48 40.3378 17.6 40.8578 17.6ZM43.6778 20V17.8L43.7378 14.6L43.5378 11.42V5.16H46.6578V20H43.6778Z" fill="#FF5F05"/>
<path d="M49 19V16.7134L54.4076 13.8598V15.1402L49 12.2866V10L55 13.311V15.689L49 19Z" fill="#13294B"/>
<path d="M59.7 20L56 9.46H59.06L61.58 17.72L64.08 9.46H67.16L63.46 20H59.7ZM73.0323 20.14C71.4857 20.14 70.2923 19.7467 69.4523 18.96C68.6257 18.16 68.2123 16.96 68.2123 15.36V9.46H71.0123V15.16C71.0123 15.64 71.079 16.0667 71.2123 16.44C71.359 16.8 71.579 17.0867 71.8723 17.3C72.179 17.5133 72.5723 17.62 73.0523 17.62C73.5723 17.62 73.9723 17.5067 74.2523 17.28C74.5323 17.0533 74.7257 16.7533 74.8323 16.38C74.939 15.9933 74.9923 15.5867 74.9923 15.16V9.46H77.7723V15.36C77.7723 17.0267 77.3523 18.24 76.5123 19C75.6857 19.76 74.5257 20.14 73.0323 20.14ZM84.7716 20.14C83.6649 20.14 82.7249 19.92 81.9516 19.48C81.1782 19.04 80.5849 18.42 80.1716 17.62C79.7582 16.8067 79.5516 15.86 79.5516 14.78C79.5516 13.6867 79.7649 12.7333 80.1916 11.92C80.6182 11.0933 81.2182 10.4467 81.9916 9.98C82.7782 9.51333 83.7049 9.28 84.7716 9.28C85.5716 9.28 86.2716 9.41333 86.8716 9.68C87.4849 9.94667 87.9982 10.32 88.4116 10.8C88.8382 11.28 89.1516 11.84 89.3516 12.48C89.5649 13.1067 89.6649 13.7867 89.6516 14.52C89.6516 14.7067 89.6449 14.8867 89.6316 15.06C89.6182 15.2333 89.5916 15.4067 89.5516 15.58H82.3316C82.3716 15.98 82.4849 16.3467 82.6716 16.68C82.8582 17.0133 83.1182 17.28 83.4516 17.48C83.7982 17.6667 84.2249 17.76 84.7316 17.76C85.0649 17.76 85.3716 17.7267 85.6516 17.66C85.9316 17.58 86.1716 17.46 86.3716 17.3C86.5716 17.14 86.7116 16.9533 86.7916 16.74H89.5516C89.3782 17.5267 89.0516 18.1733 88.5716 18.68C88.1049 19.1867 87.5382 19.56 86.8716 19.8C86.2049 20.0267 85.5049 20.14 84.7716 20.14ZM82.3916 13.62H86.9716C86.9582 13.26 86.8649 12.9267 86.6916 12.62C86.5316 12.3 86.2849 12.0467 85.9516 11.86C85.6316 11.66 85.2182 11.56 84.7116 11.56C84.2049 11.56 83.7782 11.66 83.4316 11.86C83.0982 12.06 82.8449 12.32 82.6716 12.64C82.5116 12.9467 82.4182 13.2733 82.3916 13.62Z" fill="#13294B"/>
</svg>
